name analog
datacolumns 19
datarows 51
range 0.551 0.5760000000000001
endheader
time	ground_force_vx	ground_force_vy	ground_force_vz	ground_force_px	ground_force_py	ground_force_pz	l_ground_force_vx	l_ground_force_vy	l_ground_force_vz	l_ground_force_px	l_ground_force_py	l_ground_force_pz	ground_torque_x	ground_torque_y	ground_torque_z	l_ground_torque_x	l_ground_torque_y	l_ground_torque_z
0.551	-0.0	-0.0	-0.0	-215.23745727539065	127.76699829101562	-1014.4661865234376	-226.0038146972656	-123.02823638916016	-965.4493408203124	-0.0	-0.0	-0.0	-0.0	-0.0	-0.0	237736.796875	39264.46484375	-72249.875
0.5515	-0.0	-0.0	-0.0	-196.2263336181641	106.70669555664062	-926.7985229492188	-119.98287200927734	-102.26350402832033	-1065.6763916015625	-0.0	-0.0	-0.0	-0.0	-0.0	-0.0	266591.8125	30111.701171875	-43407.5390625
0.552	-0.0	-0.0	-0.0	-150.73611450195312	75.7326889038086	-936.5308837890624	-34.32625198364258	-82.64411163330078	-1121.8160400390625	-0.0	-0.0	-0.0	-0.0	-0.0	-0.0	282986.3125	23318.94921875	-19326.4140625
0.5525	-0.0	-0.0	-0.0	-86.7900619506836	52.61384963989258	-980.6318359375	22.10033416748047	-79.12753295898438	-1142.074951171875	-0.0	-0.0	-0.0	-0.0	-0.0	-0.0	287792.78125	20003.17578125	-4184.08935546875
0.553	-0.0	-0.0	-0.0	-37.50530242919922	45.13435363769531	-1016.4932861328124	49.91348648071289	-91.46307373046876	-1136.6705322265625	-0.0	-0.0	-0.0	-0.0	-0.0	-0.0	284951.90625	19187.708984375	4123.92724609375
0.5535	-0.0	-0.0	-0.0	-20.45014190673828	46.66249847412109	-1050.1224365234375	56.14261245727539	-117.00404357910156	-1099.4654541015625	-0.0	-0.0	-0.0	-0.0	-0.0	-0.0	271637.1875	21128.396484375	5919.21923828125
0.554	-0.0	-0.0	-0.0	-25.01875686645508	61.995155334472656	-1055.694091796875	51.12242126464844	-133.42086791992188	-1065.49072265625	-0.0	-0.0	-0.0	-0.0	-0.0	-0.0	260155.921875	23634.08203125	4311.2001953125
0.5545	-0.0	-0.0	-0.0	-38.676048278808594	88.17876434326172	-1026.305419921875	43.62394332885742	-122.88566589355467	-1032.0830078125	-0.0	-0.0	-0.0	-0.0	-0.0	-0.0	251533.125	25821.29296875	1870.744140625
0.555	-0.0	-0.0	-0.0	-50.89617156982422	105.00399780273438	-1008.3660888671876	31.075590133666992	-107.7646484375	-1000.1174926757812	-0.0	-0.0	-0.0	-0.0	-0.0	-0.0	243089.703125	28454.6328125	-2211.034912109375
0.5555	-0.0	-0.0	-0.0	-52.45429611206055	98.71803283691406	-1000.9119873046876	12.859403610229492	-101.71002960205078	-970.21044921875	-0.0	-0.0	-0.0	-0.0	-0.0	-0.0	235751.96875	30741.68359375	-7519.02978515625
0.556	-0.0	-0.0	-0.0	-47.85693359375	79.10075378417969	-1005.6620483398438	-4.348863124847412	-104.17172241210938	-942.434814453125	-0.0	-0.0	-0.0	-0.0	-0.0	-0.0	227939.21875	32827.578125	-12382.9267578125
0.5565	-0.0	-0.0	-0.0	-43.08599090576172	66.89069366455078	-998.37060546875	-16.835365295410156	-107.71324157714844	-912.720947265625	-0.0	-0.0	-0.0	-0.0	-0.0	-0.0	219818.59375	34669.62109375	-16127.134765625
0.557	-0.0	-0.0	-0.0	-45.450775146484375	67.5236587524414	-977.1476440429688	-22.83778190612793	-109.51849365234376	-885.1787109375	-0.0	-0.0	-0.0	-0.0	-0.0	-0.0	212116.734375	35849.53125	-17878.75390625
0.5575	-0.0	-0.0	-0.0	-51.86801910400391	73.17605590820312	-952.30078125	-21.88128662109375	-110.83332061767578	-859.537353515625	-0.0	-0.0	-0.0	-0.0	-0.0	-0.0	205019.734375	36206.44140625	-17921.359375
0.558	-0.0	-0.0	-0.0	-60.261375427246094	79.27749633789062	-927.4675903320312	-18.480880737304688	-111.11937713623048	-839.4810791015625	-0.0	-0.0	-0.0	-0.0	-0.0	-0.0	199387.515625	36130.671875	-17269.5234375
0.5585	-0.0	-0.0	-0.0	-67.67787170410156	82.11723327636719	-903.2113647460938	-15.928062438964844	-108.7239990234375	-820.8634643554688	-0.0	-0.0	-0.0	-0.0	-0.0	-0.0	195332.171875	36008.265625	-16868.1171875
0.559	-0.0	-0.0	-0.0	-73.66204071044922	80.2581787109375	-883.0009765625	-14.923423767089844	-102.8888168334961	-807.7898559570312	-0.0	-0.0	-0.0	-0.0	-0.0	-0.0	191531.28125	35750.7421875	-16733.806640625
0.5595	-0.0	-0.0	-0.0	-77.5458755493164	76.06914520263672	-860.1263427734375	-14.468328475952148	-96.27374267578124	-795.7954711914062	-0.0	-0.0	-0.0	-0.0	-0.0	-0.0	189014.75	35281.203125	-16726.05859375
0.56	-0.0	-0.0	-0.0	-80.81832885742188	72.79196166992188	-845.865966796875	-13.80687141418457	-90.1718978881836	-787.1317138671875	-0.0	-0.0	-0.0	-0.0	-0.0	-0.0	187810.453125	34456.15234375	-16338.46484375
0.5605	-0.0	-0.0	-0.0	-82.72553253173828	69.96736145019531	-831.9287719726562	-11.968015670776367	-86.28237915039062	-780.0216674804688	-0.0	-0.0	-0.0	-0.0	-0.0	-0.0	186644.859375	33395.41015625	-15831.953125
0.561	-0.0	-0.0	-0.0	-81.89524841308594	69.28154754638672	-824.322021484375	-9.415838241577148	-82.75444030761719	-775.4656982421875	-0.0	-0.0	-0.0	-0.0	-0.0	-0.0	186107.09375	32221.130859375	-14928.4228515625
0.5615	-0.0	-0.0	-0.0	-77.46989440917969	70.08349609375	-819.6485595703125	-6.73456335067749	-79.11395263671875	-765.012451171875	-0.0	-0.0	-0.0	-0.0	-0.0	-0.0	184632.5625	30859.248046875	-13444.123046875
0.562	-0.0	-0.0	-0.0	-70.41035461425781	71.48258972167969	-814.4669189453125	-5.213574409484863	-75.59613800048828	-757.1209716796875	-0.0	-0.0	-0.0	-0.0	-0.0	-0.0	183030.921875	29759.724609375	-12547.943359375
0.5625	-0.0	-0.0	-0.0	-65.28125762939453	72.11561584472656	-811.3600463867188	-5.363492012023926	-72.32847595214844	-743.0474243164062	-0.0	-0.0	-0.0	-0.0	-0.0	-0.0	180524.40625	28611.240234375	-11716.6474609375
0.5630000000000001	-0.0	-0.0	-0.0	-60.92521667480469	71.16785430908203	-803.6499633789062	-5.616005420684815	-67.66141510009766	-727.712646484375	-0.0	-0.0	-0.0	-0.0	-0.0	-0.0	177569.21875	27416.640625	-11183.9638671875
0.5635	-0.0	-0.0	-0.0	-59.90754318237305	69.9936752319336	-794.1144409179688	-7.185573577880859	-63.157447814941406	-710.4463500976562	-0.0	-0.0	-0.0	-0.0	-0.0	-0.0	173225.296875	26157.796875	-10958.1279296875
0.5640000000000001	-0.0	-0.0	-0.0	-59.597747802734375	68.14275360107422	-778.3883056640625	-9.081694602966309	-59.67868041992188	-689.8492431640625	-0.0	-0.0	-0.0	-0.0	-0.0	-0.0	168879.46875	25090.177734375	-10789.6650390625
0.5645	-0.0	-0.0	-0.0	-60.54317474365234	66.09261322021484	-764.634521484375	-11.183565139770508	-57.3619499206543	-669.62548828125	-0.0	-0.0	-0.0	-0.0	-0.0	-0.0	163878.171875	24069.3046875	-10731.2431640625
0.5650000000000001	-0.0	-0.0	-0.0	-61.51296615600586	64.36863708496094	-748.1004028320312	-13.29751682281494	-55.43960189819336	-649.748291015625	-0.0	-0.0	-0.0	-0.0	-0.0	-0.0	159167.71875	23047.662109375	-10629.4052734375
0.5655	-0.0	-0.0	-0.0	-62.0649528503418	63.56682968139648	-730.6948852539062	-13.88047695159912	-53.93834686279297	-630.8134155273438	-0.0	-0.0	-0.0	-0.0	-0.0	-0.0	154804.40625	21816.279296875	-10228.001953125
0.5660000000000001	-0.0	-0.0	-0.0	-62.10762786865234	62.747802734375	-713.1380615234375	-13.061330795288086	-51.62137222290039	-614.3008422851562	-0.0	-0.0	-0.0	-0.0	-0.0	-0.0	151313.34375	20310.638671875	-9314.216796875
0.5665	-0.0	-0.0	-0.0	-61.71234893798828	61.96693801879883	-697.9525146484375	-10.97414493560791	-49.51752471923828	-600.685302734375	-0.0	-0.0	-0.0	-0.0	-0.0	-0.0	148663.328125	18787.05078125	-8420.595703125
0.5670000000000001	-0.0	-0.0	-0.0	-59.58538436889648	60.71918487548828	-683.92578125	-8.469481468200684	-47.200782775878906	-589.0635375976562	-0.0	-0.0	-0.0	-0.0	-0.0	-0.0	146411.078125	17243.015625	-7299.732421875
0.5675	-0.0	-0.0	-0.0	-57.49446105957031	59.36427307128906	-672.1014404296875	-5.766201019287109	-45.52754211425781	-578.79248046875	-0.0	-0.0	-0.0	-0.0	-0.0	-0.0	144047.859375	15620.4169921875	-6027.35498046875
0.5680000000000001	-0.0	-0.0	-0.0	-54.36585235595703	58.079586029052734	-659.3995361328125	-3.742577314376831	-44.1145133972168	-565.7916259765625	-0.0	-0.0	-0.0	-0.0	-0.0	-0.0	141552.984375	14260.9580078125	-5094.927734375
0.5685	-0.0	-0.0	-0.0	-51.54209518432617	56.84075164794922	-646.4786987304688	-2.281248092651367	-42.7144660949707	-554.2702026367188	-0.0	-0.0	-0.0	-0.0	-0.0	-0.0	139081.53125	12474.703125	-4200.81494140625
0.5690000000000001	-0.0	-0.0	-0.0	-48.211544036865234	56.57619857788086	-634.9855346679688	-1.7279213666915894	-42.21776580810547	-542.7638549804688	-0.0	-0.0	-0.0	-0.0	-0.0	-0.0	135955.984375	11197.4755859375	-3592.912353515625
0.5695	-0.0	-0.0	-0.0	-45.65167617797852	56.37858200073242	-623.8685913085938	-1.1283713579177856	-41.843292236328125	-529.7467651367188	-0.0	-0.0	-0.0	-0.0	-0.0	-0.0	133370.125	10021.96484375	-3116.63916015625
0.5700000000000001	-0.0	-0.0	-0.0	-41.857059478759766	56.71087646484375	-612.0520629882812	-1.113978147506714	-40.9354133605957	-516.9962158203125	-0.0	-0.0	-0.0	-0.0	-0.0	-0.0	130820.6953125	8621.03515625	-2688.08544921875
0.5705	-0.0	-0.0	-0.0	-38.891849517822266	57.6198616027832	-601.9835205078125	-0.1528786867856979	-39.37017822265625	-504.16253662109375	-0.0	-0.0	-0.0	-0.0	-0.0	-0.0	127865.6171875	7286.74560546875	-2284.978271484375
0.5710000000000001	-0.0	-0.0	-0.0	-36.062931060791016	57.7581787109375	-589.3640747070312	0.5079391598701477	-37.20194625854492	-491.68994140625	-0.0	-0.0	-0.0	-0.0	-0.0	-0.0	125012.3671875	5954.24755859375	-1780.7962646484375
0.5715	-0.0	-0.0	-0.0	-33.54167175292969	58.11006164550781	-576.2042846679688	2.018838167190552	-35.216278076171875	-480.0624694824219	-0.0	-0.0	-0.0	-0.0	-0.0	-0.0	122075.859375	4903.2041015625	-1052.9432373046875
0.5720000000000001	-0.0	-0.0	-0.0	-31.28841781616211	58.44633483886719	-562.0687255859375	3.8601343631744394	-33.87257766723633	-467.2402038574219	-0.0	-0.0	-0.0	-0.0	-0.0	-0.0	119648.0078125	3385.373046875	-509.3342590332031
0.5725	-0.0	-0.0	-0.0	-29.05961227416992	58.357421875	-549.1036987304688	4.902876377105713	-32.78889465332031	-456.8606567382813	-0.0	-0.0	-0.0	-0.0	-0.0	-0.0	117138.296875	2262.854248046875	225.9496612548828
0.5730000000000001	-0.0	-0.0	-0.0	-25.936635971069336	58.42460632324219	-535.8555908203125	5.854911804199219	-31.44252014160156	-445.7735900878906	-0.0	-0.0	-0.0	-0.0	-0.0	-0.0	114729.3515625	827.4057006835938	789.853515625
0.5735	-0.0	-0.0	-0.0	-22.748218536376957	58.179988861083984	-524.382568359375	7.629127502441406	-30.91259002685547	-435.22076416015625	-0.0	-0.0	-0.0	-0.0	-0.0	-0.0	112035.8359375	-122.8482894897461	1339.7332763671875
0.5740000000000001	-0.0	-0.0	-0.0	-20.138887405395508	58.9156379699707	-512.1109619140625	9.048500061035156	-30.46957015991211	-423.3379821777344	-0.0	-0.0	-0.0	-0.0	-0.0	-0.0	109576.5859375	-1384.2945556640625	2112.614501953125
0.5745	-0.0	-0.0	-0.0	-16.52626609802246	57.64506912231445	-498.8663940429688	10.646517753601074	-30.359664916992188	-414.7873229980469	-0.0	-0.0	-0.0	-0.0	-0.0	-0.0	107302.7578125	-2141.230224609375	2780.966552734375
0.5750000000000001	-0.0	-0.0	-0.0	-12.935790061950684	56.8654670715332	-489.1531677246094	12.308855056762695	-30.360811233520508	-405.2713317871094	-0.0	-0.0	-0.0	-0.0	-0.0	-0.0	105448.6015625	-3040.797607421875	3412.094482421875
0.5755	-0.0	-0.0	-0.0	-9.190064430236816	55.84088897705078	-477.6767578125	14.017044067382812	-30.00674057006836	-399.1668701171875	-0.0	-0.0	-0.0	-0.0	-0.0	-0.0	103311.640625	-4053.745849609375	3999.88623046875
0.5760000000000001	-0.0	-0.0	-0.0	-6.066314697265625	54.61518096923828	-468.4918212890625	15.147991180419922	-30.184558868408203	-389.564453125	-0.0	-0.0	-0.0	-0.0	-0.0	-0.0	101450.765625	-4822.80810546875	4593.82568359375
